# Blender 3.3.1
# www.blender.org
mtllib Star_round.mtl
o Star
v 0.000000 0.041272 0.000000
v 0.000000 -0.041272 0.000000
v 0.500000 0.041272 0.000000
v 0.500000 -0.041272 0.000000
v 0.154509 0.041272 -0.475528
v 0.154509 -0.041272 -0.475528
v -0.404509 0.041272 -0.293893
v -0.404509 -0.041272 -0.293893
v -0.404509 0.041272 0.293893
v -0.404509 -0.041272 0.293893
v 0.154509 0.041272 0.475528
v 0.154509 -0.041272 0.475528
v 0.648499 0.041272 -0.282461
v 0.469034 0.041272 -0.529474
v 0.529948 0.041272 -0.385030
v 0.678459 0.041272 -0.359498
v 0.683209 0.041272 -0.427311
v 0.662423 0.041272 -0.481279
v 0.617520 0.041272 -0.517724
v 0.551558 0.041272 -0.534162
v 0.469034 -0.041272 -0.529474
v 0.648499 -0.041272 -0.282461
v 0.529948 -0.041272 -0.385030
v 0.551558 -0.041272 -0.534162
v 0.617520 -0.041272 -0.517724
v 0.662423 -0.041272 -0.481279
v 0.683209 -0.041272 -0.427311
v 0.678459 -0.041272 -0.359498
v -0.068239 0.041272 -0.704044
v -0.358620 0.041272 -0.609694
v -0.202422 0.041272 -0.622992
v -0.132247 0.041272 -0.756344
v -0.195274 0.041272 -0.781816
v -0.253023 0.041272 -0.778725
v -0.301560 0.041272 -0.747282
v -0.337577 0.041272 -0.689628
v -0.358620 -0.041272 -0.609694
v -0.068239 -0.041272 -0.704044
v -0.202422 -0.041272 -0.622992
v -0.337577 -0.041272 -0.689628
v -0.301560 -0.041272 -0.747282
v -0.253023 -0.041272 -0.778725
v -0.195274 -0.041272 -0.781816
v -0.132247 -0.041272 -0.756344
v -0.690673 0.041272 -0.152662
v -0.690673 0.041272 0.152662
v -0.655052 0.041272 -0.000000
v -0.760192 0.041272 -0.107948
v -0.803894 0.041272 -0.055878
v -0.818800 0.041272 -0.000000
v -0.803894 0.041272 0.055878
v -0.760193 0.041272 0.107948
v -0.690673 -0.041272 0.152662
v -0.690673 -0.041272 -0.152662
v -0.655052 -0.041272 -0.000000
v -0.760193 -0.041272 0.107948
v -0.803895 -0.041272 0.055878
v -0.818800 -0.041272 -0.000000
v -0.803895 -0.041272 -0.055878
v -0.760193 -0.041272 -0.107948
v -0.358620 0.041272 0.609694
v -0.068239 0.041272 0.704044
v -0.202422 0.041272 0.622992
v -0.337577 0.041272 0.689628
v -0.301560 0.041272 0.747282
v -0.253023 0.041272 0.778725
v -0.195274 0.041272 0.781816
v -0.132247 0.041272 0.756344
v -0.068239 -0.041272 0.704044
v -0.358620 -0.041272 0.609694
v -0.202422 -0.041272 0.622992
v -0.132247 -0.041272 0.756344
v -0.195274 -0.041272 0.781816
v -0.253023 -0.041272 0.778725
v -0.301560 -0.041272 0.747282
v -0.337577 -0.041272 0.689628
v 0.469033 0.041272 0.529474
v 0.648498 0.041272 0.282461
v 0.529948 0.041272 0.385030
v 0.551558 0.041272 0.534162
v 0.617520 0.041272 0.517724
v 0.662423 0.041272 0.481279
v 0.683208 0.041272 0.427311
v 0.678459 0.041272 0.359498
v 0.648498 -0.041272 0.282461
v 0.469033 -0.041272 0.529474
v 0.529948 -0.041272 0.385030
v 0.678459 -0.041272 0.359498
v 0.683208 -0.041272 0.427311
v 0.662423 -0.041272 0.481279
v 0.617520 -0.041272 0.517724
v 0.551558 -0.041272 0.534162
vn -0.0000 -1.0000 -0.0000
vn 0.8851 -0.0000 0.4653
vn 0.9100 -0.0000 0.4146
vn -0.0000 1.0000 -0.0000
vn 0.7161 -0.0000 -0.6980
vn 0.6755 -0.0000 -0.7374
vn -0.4426 -0.0000 -0.8967
vn -0.4925 -0.0000 -0.8703
vn -0.9896 -0.0000 0.1438
vn -0.9799 -0.0000 0.1995
vn -0.1690 -0.0000 0.9856
vn -0.1131 -0.0000 0.9936
vn -0.1131 -0.0000 -0.9936
vn -0.1690 -0.0000 -0.9856
vn -0.9799 -0.0000 -0.1995
vn -0.9896 -0.0000 -0.1438
vn -0.4925 -0.0000 0.8703
vn -0.4426 -0.0000 0.8967
vn 0.6755 -0.0000 0.7374
vn 0.7161 -0.0000 0.6980
vn 0.8851 -0.0000 -0.4653
vn 0.9100 -0.0000 -0.4146
vn -0.6609 -0.0000 -0.7504
vn -0.8872 -0.0000 -0.4613
vn -1.0000 -0.0000 -0.0000
vn -0.8872 -0.0000 0.4613
vn -0.6609 -0.0000 0.7504
vn 0.0936 -0.0000 0.9956
vn 0.4466 -0.0000 0.8947
vn 0.8090 -0.0000 0.5878
vn 0.9889 -0.0000 0.1483
vn 0.9758 -0.0000 -0.2186
vn 0.9758 -0.0000 0.2186
vn 0.9889 -0.0000 -0.1483
vn 0.8090 -0.0000 -0.5878
vn 0.4466 -0.0000 -0.8947
vn 0.0936 -0.0000 -0.9956
vn -0.9180 -0.0000 0.3967
vn -0.7129 -0.0000 0.7013
vn -0.3090 -0.0000 0.9511
vn 0.1646 -0.0000 0.9864
vn 0.5095 -0.0000 0.8605
vn 0.5095 -0.0000 -0.8605
vn 0.1646 -0.0000 -0.9864
vn -0.3090 -0.0000 -0.9511
vn -0.7129 -0.0000 -0.7013
vn -0.9180 -0.0000 -0.3967
vt 0.282056 0.322491
vt 0.717659 0.677509
vt 0.859275 0.001844
vt 0.077006 0.322490
vt 0.220752 0.526970
vt 0.893127 0.001844
vt 0.551770 0.556984
vt 0.186900 0.526970
vt 0.896818 0.001844
vt 0.859275 0.434570
vt 0.218693 0.127477
vt 0.930670 0.001844
vt 0.893127 0.434570
vt 0.551770 0.798034
vt 0.934368 0.001844
vt 0.896818 0.434570
vt 0.447945 0.201966
vt 0.968219 0.001844
vt 0.930670 0.434570
vt 0.781022 0.872523
vt 0.855574 0.001855
vt 0.934368 0.434570
vt 0.447945 0.443016
vt 0.855575 0.035707
vt 0.968219 0.434570
vt 0.922708 0.677510
vt 0.220752 0.959696
vt 0.422848 0.001855
vt 0.218692 0.517505
vt 0.186900 0.959696
vt 0.422848 0.035707
vt 0.781023 0.482495
vt 0.016107 0.206653
vt 0.859275 0.132714
vt 0.859275 0.303700
vt 0.089706 0.105354
vt 0.064725 0.164590
vt 0.003821 0.175060
vt 0.859275 0.166612
vt 0.001873 0.147250
vt 0.859275 0.194490
vt 0.010397 0.125118
vt 0.859275 0.218207
vt 0.028812 0.110172
vt 0.859275 0.241924
vt 0.055863 0.103431
vt 0.859275 0.269802
vt 0.434414 0.740116
vt 0.893127 0.303700
vt 0.434414 0.614902
vt 0.893127 0.132714
vt 0.449022 0.677509
vt 0.405904 0.721778
vt 0.893127 0.269802
vt 0.387982 0.700424
vt 0.893127 0.241924
vt 0.381869 0.677509
vt 0.893127 0.218207
vt 0.387982 0.654593
vt 0.893127 0.194490
vt 0.405904 0.633239
vt 0.893127 0.166612
vt 0.310042 0.033763
vt 0.896818 0.132714
vt 0.429127 0.072456
vt 0.896818 0.303700
vt 0.365070 0.067003
vt 0.336291 0.012315
vt 0.896818 0.166612
vt 0.362139 0.001869
vt 0.896818 0.194490
vt 0.385822 0.003136
vt 0.896818 0.218207
vt 0.405727 0.016031
vt 0.896818 0.241924
vt 0.420497 0.039675
vt 0.896818 0.269802
vt 0.689673 0.966237
vt 0.930670 0.303700
vt 0.570589 0.927544
vt 0.930670 0.132714
vt 0.634645 0.932998
vt 0.663424 0.987685
vt 0.930670 0.269802
vt 0.637577 0.998132
vt 0.930670 0.241924
vt 0.613894 0.996864
vt 0.930670 0.218207
vt 0.593989 0.983969
vt 0.930670 0.194490
vt 0.579218 0.960325
vt 0.930670 0.166612
vt 0.565301 0.259885
vt 0.934368 0.132714
vt 0.565300 0.385098
vt 0.934368 0.303700
vt 0.550693 0.322492
vt 0.593811 0.278222
vt 0.934368 0.166612
vt 0.611733 0.299576
vt 0.934368 0.194490
vt 0.617846 0.322492
vt 0.934368 0.218207
vt 0.611733 0.345407
vt 0.934368 0.241924
vt 0.593810 0.366761
vt 0.934368 0.269802
vt 0.983607 0.793347
vt 0.968220 0.303700
vt 0.910009 0.894646
vt 0.968220 0.132714
vt 0.934990 0.835410
vt 0.995894 0.824939
vt 0.968220 0.269802
vt 0.997842 0.852749
vt 0.968220 0.241924
vt 0.989318 0.874882
vt 0.968220 0.218207
vt 0.970903 0.889828
vt 0.968220 0.194490
vt 0.943852 0.896569
vt 0.968220 0.166612
vt 0.429125 0.572526
vt 0.724704 0.001855
vt 0.310040 0.611219
vt 0.553719 0.001855
vt 0.365069 0.577980
vt 0.420496 0.605307
vt 0.690807 0.001855
vt 0.405725 0.628951
vt 0.662928 0.001855
vt 0.385820 0.641846
vt 0.639211 0.001855
vt 0.362137 0.643114
vt 0.615494 0.001855
vt 0.336290 0.632667
vt 0.587616 0.001855
vt 0.910009 0.460373
vt 0.553719 0.035707
vt 0.983608 0.561672
vt 0.724704 0.035707
vt 0.934990 0.519609
vt 0.943853 0.458450
vt 0.587616 0.035707
vt 0.970904 0.465191
vt 0.615494 0.035707
vt 0.989318 0.480137
vt 0.639211 0.035707
vt 0.997842 0.502270
vt 0.662928 0.035707
vt 0.995895 0.530080
vt 0.690807 0.035707
vt 0.089705 0.539627
vt 0.220752 0.828826
vt 0.016107 0.438327
vt 0.220752 0.657840
vt 0.064724 0.480391
vt 0.055862 0.541550
vt 0.220752 0.794928
vt 0.028811 0.534809
vt 0.220752 0.767050
vt 0.010396 0.519863
vt 0.220752 0.743333
vt 0.001872 0.497730
vt 0.220752 0.719616
vt 0.003820 0.469920
vt 0.220752 0.691738
vt 0.570589 0.427474
vt 0.186900 0.657840
vt 0.689674 0.388781
vt 0.186900 0.828826
vt 0.634646 0.422021
vt 0.579219 0.394693
vt 0.186900 0.691738
vt 0.593989 0.371049
vt 0.186900 0.719616
vt 0.613895 0.358154
vt 0.186900 0.743333
vt 0.637578 0.356887
vt 0.186900 0.767050
vt 0.663425 0.367333
vt 0.186900 0.794928
s 1
usemtl Material.001
f 2/2/1 4/7/1 85/168/1 87/172/1
f 3/3/2 4/6/2 22/51/3 13/34/3
f 1/1/4 3/4/4 13/33/4 15/37/4
f 5/9/5 6/12/5 38/81/6 29/64/6
f 1/1/4 5/11/4 29/63/4 31/67/4
f 7/15/7 8/18/7 54/111/8 45/94/8
f 1/1/4 7/17/4 45/93/4 47/97/4
f 9/21/9 10/24/9 70/141/10 61/124/10
f 1/1/4 9/23/4 61/123/4 63/127/4
f 11/27/11 12/30/11 86/171/12 77/154/12
f 1/1/4 11/29/4 77/153/4 79/157/4
f 14/35/13 21/49/13 6/13/14 5/10/14
f 4/7/1 2/2/1 23/52/1 22/50/1
f 30/66/15 37/79/15 8/19/16 7/16/16
f 6/14/1 2/2/1 39/82/1 38/80/1
f 46/96/17 53/109/17 10/25/18 9/22/18
f 53/108/1 55/112/1 2/2/1 10/26/1
f 62/126/19 69/139/19 12/31/20 11/28/20
f 10/26/1 2/2/1 71/142/1 70/140/1
f 3/4/4 1/1/4 79/157/4 78/155/4
f 12/32/1 2/2/1 87/172/1 86/170/1
f 21/48/1 23/52/1 2/2/1 6/14/1
f 1/1/4 31/67/4 30/65/4 7/17/4
f 37/78/1 39/82/1 2/2/1 8/20/1
f 1/1/4 47/97/4 46/95/4 9/23/4
f 1/1/4 63/127/4 62/125/4 11/29/4
f 8/20/1 2/2/1 55/112/1 54/110/1
f 69/138/1 71/142/1 2/2/1 12/32/1
f 4/8/21 3/5/21 78/156/22 85/169/22
f 13/33/4 16/38/4 15/37/4
f 16/38/4 17/40/4 15/37/4
f 17/40/4 18/42/4 15/37/4
f 18/42/4 19/44/4 15/37/4
f 19/44/4 20/46/4 15/37/4
f 20/46/4 14/36/4 15/37/4
f 21/48/1 24/53/1 23/52/1
f 24/53/1 25/55/1 23/52/1
f 25/55/1 26/57/1 23/52/1
f 26/57/1 27/59/1 23/52/1
f 27/59/1 28/61/1 23/52/1
f 28/61/1 22/50/1 23/52/1
f 29/63/4 32/68/4 31/67/4
f 32/68/4 33/70/4 31/67/4
f 33/70/4 34/72/4 31/67/4
f 34/72/4 35/74/4 31/67/4
f 35/74/4 36/76/4 31/67/4
f 36/76/4 30/65/4 31/67/4
f 37/78/1 40/83/1 39/82/1
f 40/83/1 41/85/1 39/82/1
f 41/85/1 42/87/1 39/82/1
f 42/87/1 43/89/1 39/82/1
f 43/89/1 44/91/1 39/82/1
f 44/91/1 38/80/1 39/82/1
f 45/93/4 48/98/4 47/97/4
f 48/98/4 49/100/4 47/97/4
f 49/100/4 50/102/4 47/97/4
f 50/102/4 51/104/4 47/97/4
f 51/104/4 52/106/4 47/97/4
f 52/106/4 46/95/4 47/97/4
f 53/108/1 56/113/1 55/112/1
f 56/113/1 57/115/1 55/112/1
f 57/115/1 58/117/1 55/112/1
f 58/117/1 59/119/1 55/112/1
f 59/119/1 60/121/1 55/112/1
f 60/121/1 54/110/1 55/112/1
f 61/123/4 64/128/4 63/127/4
f 64/128/4 65/130/4 63/127/4
f 65/130/4 66/132/4 63/127/4
f 66/132/4 67/134/4 63/127/4
f 67/134/4 68/136/4 63/127/4
f 68/136/4 62/125/4 63/127/4
f 69/138/1 72/143/1 71/142/1
f 72/143/1 73/145/1 71/142/1
f 73/145/1 74/147/1 71/142/1
f 74/147/1 75/149/1 71/142/1
f 75/149/1 76/151/1 71/142/1
f 76/151/1 70/140/1 71/142/1
f 77/153/4 80/158/4 79/157/4
f 80/158/4 81/160/4 79/157/4
f 81/160/4 82/162/4 79/157/4
f 82/162/4 83/164/4 79/157/4
f 83/164/4 84/166/4 79/157/4
f 84/166/4 78/155/4 79/157/4
f 85/168/1 88/173/1 87/172/1
f 88/173/1 89/175/1 87/172/1
f 89/175/1 90/177/1 87/172/1
f 90/177/1 91/179/1 87/172/1
f 91/179/1 92/181/1 87/172/1
f 92/181/1 86/170/1 87/172/1
f 45/94/8 54/111/8 60/122/23 48/99/23
f 48/99/23 60/122/23 59/120/24 49/101/24
f 49/101/24 59/120/24 58/118/25 50/103/25
f 50/103/25 58/118/25 57/116/26 51/105/26
f 51/105/26 57/116/26 56/114/27 52/107/27
f 52/107/27 56/114/27 53/109/17 46/96/17
f 77/154/12 86/171/12 92/182/28 80/159/28
f 80/159/28 92/182/28 91/180/29 81/161/29
f 81/161/29 91/180/29 90/178/30 82/163/30
f 82/163/30 90/178/30 89/176/31 83/165/31
f 83/165/31 89/176/31 88/174/32 84/167/32
f 84/167/32 88/174/32 85/169/22 78/156/22
f 13/34/3 22/51/3 28/62/33 16/39/33
f 16/39/33 28/62/33 27/60/34 17/41/34
f 17/41/34 27/60/34 26/58/35 18/43/35
f 18/43/35 26/58/35 25/56/36 19/45/36
f 19/45/36 25/56/36 24/54/37 20/47/37
f 20/47/37 24/54/37 21/49/13 14/35/13
f 61/124/10 70/141/10 76/152/38 64/129/38
f 64/129/38 76/152/38 75/150/39 65/131/39
f 65/131/39 75/150/39 74/148/40 66/133/40
f 66/133/40 74/148/40 73/146/41 67/135/41
f 67/135/41 73/146/41 72/144/42 68/137/42
f 68/137/42 72/144/42 69/139/19 62/126/19
f 29/64/6 38/81/6 44/92/43 32/69/43
f 32/69/43 44/92/43 43/90/44 33/71/44
f 33/71/44 43/90/44 42/88/45 34/73/45
f 34/73/45 42/88/45 41/86/46 35/75/46
f 35/75/46 41/86/46 40/84/47 36/77/47
f 36/77/47 40/84/47 37/79/15 30/66/15
f 1/1/4 15/37/4 14/36/4 5/11/4
